<svg width="12" height="14" viewBox="0 0 12 14" fill="none" xmlns="http://www.w3.org/2000/svg">
<path d="M8.66667 4.49671V9.33337C8.66647 10.2334 8.38603 11.111 7.86429 11.8444C7.34255 12.5778 6.6054 13.1305 5.7552 13.4258C4.905 13.7211 3.98394 13.7444 3.11992 13.4924C2.2559 13.2404 1.49179 12.7256 0.93369 12.0195C0.375594 11.3133 0.0512084 10.451 0.00557524 9.55212C-0.0400579 8.65325 0.195326 7.76247 0.679044 7.00348C1.16276 6.24448 1.87081 5.65494 2.70486 5.31671C3.53892 4.97848 4.4576 4.90834 5.33333 5.11604V7.22471C4.87655 7.00803 4.36174 6.94558 3.8664 7.04676C3.37105 7.14793 2.92197 7.40725 2.58673 7.78569C2.2515 8.16413 2.04825 8.64122 2.00757 9.14515C1.96689 9.64908 2.09098 10.1526 2.36118 10.5799C2.63137 11.0072 3.03305 11.3352 3.50575 11.5145C3.97845 11.6938 4.49661 11.7148 4.98224 11.5742C5.46786 11.4336 5.89469 11.1391 6.19847 10.7349C6.50226 10.3308 6.66656 9.83895 6.66667 9.33337V0.333374H8.66667C8.66667 1.21743 9.01786 2.06528 9.64298 2.6904C10.2681 3.31552 11.1159 3.66671 12 3.66671V5.66671C10.7879 5.66852 9.61171 5.25567 8.66667 4.49671Z" fill="white"/>
</svg>
