<svg width="14" height="12" viewBox="0 0 14 12" fill="none" xmlns="http://www.w3.org/2000/svg">
<path d="M7.16271 0.666626C7.51871 0.668626 8.40937 0.677293 9.35604 0.715293L9.69204 0.729959C10.6447 0.774626 11.5967 0.851959 12.0694 0.983293C12.6994 1.16063 13.194 1.67663 13.3614 2.33129C13.628 3.37129 13.6614 5.39929 13.6654 5.89063L13.666 5.99196V6.10796C13.6614 6.59929 13.628 8.62796 13.3614 9.66729C13.192 10.324 12.6967 10.8406 12.0694 11.0153C11.5967 11.1466 10.6447 11.224 9.69204 11.2686L9.35604 11.284C8.40937 11.3213 7.51871 11.3306 7.16271 11.332L7.00604 11.3326H6.83604C6.08271 11.328 2.93204 11.294 1.92937 11.0153C1.30004 10.838 0.804707 10.322 0.637374 9.66729C0.370707 8.62729 0.337374 6.59929 0.333374 6.10796V5.89063C0.337374 5.39929 0.370707 3.37063 0.637374 2.33129C0.806707 1.67463 1.30204 1.15796 1.93004 0.983959C2.93204 0.704626 6.08337 0.670626 6.83671 0.666626H7.16271ZM5.66604 3.66663V8.33329L9.66604 5.99996L5.66604 3.66663Z" fill="white"/>
</svg>
